<svg xmlns="http://www.w3.org/2000/svg" width="22" height="22" viewBox="0 0 32 50">
    <path fill="#4d4dff" fill-rule="evenodd"
          d="m15.861 0 .007 21.387-2.55 2.572H0V3.852h6.23c5.915 0 6.231-.002 6.255-.024.014-.015.779-.881 1.7-1.927zm-3.903 9.773c-.014.386-.025.875-.035 1.335l-.018.835a17 17 0 0 0-.615.191c-.167.057-.208.067-.219.051-.007-.011-.305-.383-.66-.828l-.647-.808c-.29.14-.582.287-.835.415l-.46.234c.466 1.469.604 1.908.61 1.923.005.025-.023.047-.187.15-.107.066-.281.178-.386.25l-.207.14c-.012.005-.269-.209-.707-.59l-.69-.6c-.055.053-.317.29-.621.56-.303.269-.55.495-.55.504 0 .007.235.319.522.69.285.373.527.686.535.696.013.014-.018.053-.133.171-.082.084-.202.214-.27.288-.066.074-.176.202-.245.285a1.3 1.3 0 0 1-.14.154c-.009.001-.388-.137-.842-.31a64 64 0 0 0-.829-.31l-.377.57c-.208.31-.376.572-.373.577.002.007.26.255.575.552.315.296.6.566.636.598l.064.062c-.047.074-.13.236-.215.409a23 23 0 0 0-.239.5c-.06.135-.089.186-.104.182a80 80 0 0 0-.848-.141 39 39 0 0 0-.828-.131c-.002.001-.108.336-.236.744-.129.407-.23.745-.225.75s.348.193.759.42l.753.41c.003.002-.018.127-.045.28-.028.152-.064.364-.08.47a1.3 1.3 0 0 1-.037.2c-.006.005-.335.062-.732.126s-.76.122-.809.131l-.089.013v1.368H4.6c.017-.492.029-.742.037-.876a15 15 0 0 1 .106-1.076c.02-.137.057-.368.083-.513s.075-.38.108-.52c.032-.141.09-.37.128-.506.039-.137.1-.34.135-.45s.099-.288.138-.398c.041-.11.108-.28.149-.378s.118-.273.173-.392c.055-.117.15-.309.212-.427s.164-.3.226-.406c.064-.106.176-.285.25-.4a9.985 9.985 0 0 1 .574-.777 10.005 10.005 0 0 1 1.002-1.033c.093-.082.243-.207.332-.278a10 10 0 0 1 .773-.556 9.78 9.78 0 0 1 1.269-.684c.117-.053.3-.13.41-.173a13 13 0 0 1 .861-.296c.118-.034.302-.085.41-.113.11-.027.29-.068.403-.092s.301-.059.417-.079a14 14 0 0 1 .89-.115c.133-.011.413-.027.622-.036.21-.007.497-.008.64-.002l.257.01v-1.354c-.476.017-.738.023-.889.024l-.275.004c-.659-1.44-.855-1.858-.864-1.858l-.616.118zm1.939 3.562a11.98 11.98 0 0 0-1.08.157 11.505 11.505 0 0 0-.904.22 10 10 0 0 0-1.238.455 11 11 0 0 0-.96.5 11 11 0 0 0-.834.563c-.116.089-.291.229-.389.31a9.227 9.227 0 0 0-1.389 1.48 11 11 0 0 0-.545.818 10 10 0 0 0-.442.841c-.058.125-.15.34-.205.477s-.139.365-.187.506a10.5 10.5 0 0 0-.352 1.304c-.024.114-.06.306-.079.428a13 13 0 0 0-.114.94c-.012.137-.026.408-.031.602l-.012.353h.75a1.7 1.7 0 0 1-.006-.356 6 6 0 0 1 .033-.385 4 4 0 0 1 .06-.3 1.944 1.944 0 0 1 .203-.527c.03-.05.085-.13.122-.173.038-.045.09-.1.117-.123s.082-.063.12-.087c.04-.026.122-.063.184-.084.103-.034.133-.037.318-.037a1.1 1.1 0 0 1 .339.037c.075.02.363.127.643.238l2.699 1.062 2.19.86 2.44-2.455c-1.73-4.296-2.247-5.592-2.262-5.65a2 2 0 0 1-.038-.214.78.78 0 0 1 .166-.54c.034-.043.106-.112.16-.155s.163-.109.24-.147c.078-.039.2-.088.269-.111a4 4 0 0 1 .608-.137 7 7 0 0 1 .618-.05h.095v-.67c-.465.003-.705.009-.834.016-.127.006-.34.021-.473.034M16.744.045 20.1 3.851h12.47l-.007 20.1-13.325.007-2.55-2.572-.002-10.682c-.001-6.46.003-10.686.01-10.692s.03.007.048.031m5.072 11.205c-.06.096-.157.263-.218.368a15 15 0 0 0-.507 1.005c-.039.085-.104.25-.146.363a5 5 0 0 0-.117.364 3 3 0 0 0-.055.284.8.8 0 0 0-.006.186.23.23 0 0 0 .054.104c.024.027.077.07.12.095a2 2 0 0 0 .297.137l.035.013c-.058.06-.107.13-.148.192-.04.063-.11.191-.154.285a4.5 4.5 0 0 0-.266.713c-.033.11-.08.302-.107.427a10 10 0 0 0-.08.406c-.015.099-.045.304-.063.456-.02.153-.051.335-.07.407-.02.07-.069.223-.108.341a8 8 0 0 1-.166.428c-.05.117-.152.335-.226.484-.073.149-.182.358-.24.464-.06.105-.17.298-.248.427-.078.13-.221.356-.317.506-.097.148-.27.402-.383.563a23 23 0 0 1-.352.48 3 3 0 0 0-.145.2c0 .005.336.35.746.763l.744.754 1.297-1.706 1.231-1.966c.996-1.932 1.313-2.535 1.347-2.586.034-.052.11-.149.17-.217.062-.067.155-.164.209-.214a4 4 0 0 1 .204-.17 3 3 0 0 1 .198-.132c.051-.027.13-.06.177-.074l.085-.024c.131.144.212.255.261.34s.137.258.192.384c.057.125.139.327.183.449.045.12.115.326.158.456s.12.392.174.584c.055.192.113.406.131.477l.034.129c1.455 1.583 1.886 2.043 1.898 2.043a.6.6 0 0 0 .137-.08c.063-.045.18-.14.258-.21.08-.072.21-.202.289-.291s.201-.237.274-.328.2-.265.284-.386a11 11 0 0 0 .524-.841 15 15 0 0 0 .566-1.119c.071-.157.178-.4.236-.541s.145-.357.191-.478a14.87 14.87 0 0 0 .37-1.069c.05-.16.12-.407.154-.548a9 9 0 0 0 .16-.805 3.5 3.5 0 0 0 .024-.47c0-.245-.004-.314-.03-.42a1.3 1.3 0 0 0-.066-.214c-.037-.085-.037-.086-.082-.076a36.866 36.866 0 0 1-2.088.266 26.903 26.903 0 0 1-1.3.088c-.225.01-.557.014-.752.008a13 13 0 0 1-.523-.023 9 9 0 0 1-.343-.037 4 4 0 0 1-.332-.058 3 3 0 0 1-.276-.077 2 2 0 0 1-.134-.056c-.017-.011-.006-.053.075-.28.052-.149.093-.27.092-.271l-1.107-.466c-.606-.257-1.102-.462-1.102-.462-.001.003-.045.08-.099.17-.09.153-.1.166-.127.152l-.268-.147a14 14 0 0 0-.385-.205 1 1 0 0 0-.174-.073q-.027.001-.094.091a6 6 0 0 0-.175.268M0 24.785h13.332l2.536 2.558V37.67c0 5.68-.003 10.329-.007 10.329a7.694 7.694 0 0 0-.325-.185 20.44 20.44 0 0 0-4.19-1.746 28 28 0 0 0-.748-.207 68 68 0 0 0-1.78-.436 75 75 0 0 0-1.915-.426l-.884-.188c-.236-.05-.545-.121-.685-.157a9 9 0 0 1-.466-.134 11 11 0 0 1-.926-.362 21 21 0 0 1-.417-.19c-.108-.054-.29-.149-.402-.212a6.858 6.858 0 0 1-.911-.61 6.617 6.617 0 0 1-.633-.6 8 8 0 0 1-.283-.337 9 9 0 0 1-.205-.278 8 8 0 0 1-.19-.302 8 8 0 0 1-.231-.435 8 8 0 0 1-.202-.456 10 10 0 0 1-.15-.42 7.337 7.337 0 0 1-.232-.976 9 9 0 0 1-.063-.45C.003 38.724 0 37.882 0 31.743zm12.877 1.61-.143.328-.116.264a15 15 0 0 0-.667.094.27.27 0 0 0-.16.127c-.01.02-.035.156-.055.303s-.045.285-.055.307a.4.4 0 0 1-.07.085.24.24 0 0 1-.098.054l-.287.04c-.173.023-.253.04-.29.061a.3.3 0 0 0-.08.093c-.024.047-.044.147-.083.425-.03.213-.062.396-.08.441a1 1 0 0 1-.06.129.451.451 0 0 1-.198.172.4.4 0 0 1-.162.03.7.7 0 0 1-.226-.046 6 6 0 0 1-.333-.13c-.108-.046-.42-.196-.692-.331a36 36 0 0 1-.791-.406 3 3 0 0 0-.375-.181q-.075-.024-.162-.016a.6.6 0 0 0-.141.031 1 1 0 0 0-.104.055c-.025.017-.14.146-.253.287a56 56 0 0 1-.737.891 39.737 39.737 0 0 1-.913 1.026A34.565 34.565 0 0 1 3.2 32.831a35.03 35.03 0 0 1-1.727 1.43.8.8 0 0 0-.148.13c.006.004.147.027.314.049.239.031.334.038.438.031.075-.006.19-.019.254-.03a3 3 0 0 0 .245-.057c.068-.02.202-.071.297-.112a4.7 4.7 0 0 0 .716-.401c.098-.066.266-.19.375-.28.108-.089.456-.377.77-.64a71.387 71.387 0 0 1 1.49-1.23c.195-.157.493-.39.664-.52s.407-.3.523-.378a4 4 0 0 1 .325-.198.8.8 0 0 1 .17-.063c.044-.007.062-.003.078.017.014.016.02.053.02.097a.6.6 0 0 1-.047.187 2 2 0 0 1-.132.264 7 7 0 0 1-.241.384c-.087.13-.263.376-.392.549a52.185 52.185 0 0 1-1.047 1.347l-.81 1.011a50.584 50.584 0 0 0-1.306 1.667c-.138.186-.32.442-.406.57-.086.13-.194.3-.237.378a2 2 0 0 0-.125.25.8.8 0 0 0-.05.178c-.005.06 0 .077.025.1.028.026.035.026.089.01a1 1 0 0 0 .151-.07 4 4 0 0 0 .226-.144 11 11 0 0 0 .714-.543c.132-.107.45-.37.706-.586.257-.215.807-.683 1.222-1.039l1.166-.992c.226-.19.557-.461.735-.607.18-.144.444-.352.586-.46.144-.11.35-.258.46-.33.108-.073.255-.162.325-.197a1 1 0 0 1 .2-.076c.064-.01.078-.007.103.017.017.018.03.047.03.072a.7.7 0 0 1-.023.12 2 2 0 0 1-.097.229 6 6 0 0 1-.167.306 16.047 16.047 0 0 1-.651.955c-.07.094-.363.476-.652.848-.286.373-.655.856-.818 1.076s-.357.493-.434.605c-.074.114-.186.291-.247.392-.06.103-.155.275-.212.385-.055.11-.127.268-.158.349a5 5 0 0 0-.096.278 3.26 3.26 0 0 0-.122.655c-.012.153-.012.25 0 .41.009.116.022.225.029.243.01.029.121-.1.973-1.109a49 49 0 0 1 1.638-1.875l.675-.735c1.68-1.562 1.85-1.712 2.219-2.005.233-.186.45-.362.48-.392a.6.6 0 0 0 .095-.124.5.5 0 0 0 .05-.148.6.6 0 0 0 .002-.164.6.6 0 0 0-.055-.171 40 40 0 0 1-.547-1.055 17 17 0 0 1-.294-.62 7 7 0 0 1-.16-.398.7.7 0 0 1-.05-.264.4.4 0 0 1 .035-.191.4.4 0 0 1 .105-.14.6.6 0 0 1 .148-.092c.048-.018.235-.052.473-.085.327-.045.405-.06.444-.088a.3.3 0 0 0 .073-.074c.019-.028.039-.127.063-.306.02-.144.048-.288.06-.32a.3.3 0 0 1 .064-.088.3.3 0 0 1 .092-.047c.03-.007.158-.027.285-.044.146-.02.255-.041.287-.058a.2.2 0 0 0 .086-.087c.029-.05.043-.124.08-.396.025-.184.049-.34.055-.344.004-.004.146-.073.316-.15a4 4 0 0 0 .308-.148c0-.003-.315-.323-.7-.712l-.697-.706zm6.363-1.61H32.57v6.951c0 4.854-.004 6.987-.015 7.071l-.042.328a7.888 7.888 0 0 1-.31 1.318 7 7 0 0 1-.35.834 5.975 5.975 0 0 1-.629.983c-.067.083-.185.22-.264.306-.081.087-.214.221-.296.298a7 7 0 0 1-.333.29 7 7 0 0 1-.777.532c-.087.049-.273.149-.417.221a14 14 0 0 1-1.088.48c-.12.046-.308.112-.417.146a11 11 0 0 1-.488.134c-.16.038-.398.094-.53.121l-.819.174c-.32.067-.824.177-1.123.242-.3.067-.776.177-1.06.242a64.652 64.652 0 0 0-1.943.484c-.164.045-.414.116-.558.159a20.446 20.446 0 0 0-2.593.968 25 25 0 0 0-1.54.775c-.156.087-.284.158-.287.158-.002-.001-.004-4.645-.01-20.643zm1.759 1.382-1.307.176-1.546 1.556c-.014.132-.03.26-.045.37-.016.11-.062.422-.105.692s-.096.632-.12.805c-.023.172-.056.439-.072.591-.02.184-.032.423-.037.705-.005.28-.003.495.009.62a4.5 4.5 0 0 0 .097.606c.017.063.05.172.075.242s.072.187.107.257.104.186.152.256a1.9 1.9 0 0 0 .453.459c.07.047.184.115.255.151.069.036.183.084.254.11.07.024.188.06.261.078s.227.049.34.067c.176.027.262.031.621.031a5.7 5.7 0 0 0 1.117-.085c.12-.019.224-.034.233-.034.008 0 .011.06.008.16a1 1 0 0 0 .018.267c.013.06.041.146.064.193.021.047.068.124.102.17a.93.93 0 0 0 .514.328 1 1 0 0 0 .274.02l.175-.005c.39.409.57.604.653.698.085.094.233.268.331.385.096.118.237.297.314.399.075.102.185.262.245.356s.143.242.184.328c.043.087.09.2.108.249a1 1 0 0 1 .036.214.7.7 0 0 1-.008.178.55.55 0 0 1-.22.264.3.3 0 0 1-.17.035.8.8 0 0 1-.205-.034 2 2 0 0 1-.226-.094 3 3 0 0 1-.247-.145 4 4 0 0 1-.255-.186c-.07-.054-.2-.162-.29-.24a11 11 0 0 1-.46-.44 22 22 0 0 1-.41-.42.8.8 0 0 0-.158-.138.4.4 0 0 0-.31.023.7.7 0 0 0-.156.11.7.7 0 0 0-.11.153.36.36 0 0 0-.042.193c0 .078.008.12.027.157.016.028.177.2.36.384.184.186.427.42.539.522.113.101.261.233.332.292a6.47 6.47 0 0 0 .516.395c.082.054.205.132.275.17.07.04.191.099.269.13.077.032.198.072.268.09.1.024.167.032.304.03.13 0 .205-.009.283-.029a1.4 1.4 0 0 0 .438-.215 1.704 1.704 0 0 0 .424-.43c.042-.066.096-.168.117-.228.021-.058.048-.151.06-.207.01-.054.02-.176.02-.27s-.01-.228-.02-.3a4 4 0 0 0-.059-.256 3.4 3.4 0 0 0-.24-.592 7 7 0 0 0-.17-.309 8 8 0 0 0-.217-.335 9 9 0 0 0-.513-.667c-.07-.08-.226-.256-.348-.389a9 9 0 0 0-.394-.403l-.172-.162a1 1 0 0 0 .028-.235c0-.07-.01-.167-.021-.214a1 1 0 0 0-.075-.193.8.8 0 0 0-.158-.213 1.2 1.2 0 0 0-.184-.153 1 1 0 0 0-.184-.084c-.096-.035-.125-.038-.308-.04-.11 0-.2-.004-.2-.008 0-.003.188-.196.416-.428l.417-.42 4.091 4.125c.182.592.246.788.26.82q.024.058.076.082a.3.3 0 0 0 .08.024.2.2 0 0 0 .067-.014c.021-.008.465-.443.984-.966s.953-.968.965-.989c.01-.021.02-.06.02-.085a.2.2 0 0 0-.026-.09.2.2 0 0 0-.075-.066 9 9 0 0 0-.432-.142l-.386-.12-4.09-4.124c.515-.526.688-.712.716-.756a1.375 1.375 0 0 0 .222-.677 4 4 0 0 0 .015-.335c0-.097-.01-.261-.021-.364a4 4 0 0 0-.062-.356 4 4 0 0 0-.093-.313 3.048 3.048 0 0 0-.301-.584 4 4 0 0 0-.173-.229 4 4 0 0 0-.192-.206 3.6 3.6 0 0 0-.486-.377 4 4 0 0 0-.268-.15 4 4 0 0 0-.552-.221 4.306 4.306 0 0 0-.509-.114 4 4 0 0 0-.423-.027 4 4 0 0 0-.353.004zM11.412 15.56c.09.002.202.018.268.034.062.017.154.05.205.072.05.025.13.072.177.106a1.24 1.24 0 0 1 .374.449c.028.06.47 1.157 1.908 4.774l-.683.7c-.374.383-.688.695-.695.692-.009-.003-1.092-.42-2.41-.93a505 505 0 0 1-2.465-.953 1.4 1.4 0 0 1-.352-.236 1 1 0 0 1-.151-.185 1.2 1.2 0 0 1-.115-.243c-.043-.13-.045-.143-.046-.37 0-.178.005-.264.025-.356a4 4 0 0 1 .074-.264 3.6 3.6 0 0 1 .261-.599 6.035 6.035 0 0 1 .788-1.082 7 7 0 0 1 .745-.702 6.019 6.019 0 0 1 .77-.523 3.57 3.57 0 0 1 .558-.254 2.428 2.428 0 0 1 .502-.124c.058-.006.175-.01.261-.006m11.733 11.155a2.42 2.42 0 0 1 .447.101c.062.021.18.07.261.108.082.04.18.093.22.117.037.024.12.084.183.133a2.385 2.385 0 0 1 .472.506c.05.073.125.202.165.283a3 3 0 0 1 .218.634c.015.078.032.207.038.285.007.125.004.151-.023.214-.024.057-.099.14-.373.417-.241.244-.352.345-.374.345-.017 0-.036-.007-.041-.017a7 7 0 0 1-.012-.482c0-.36-.007-.494-.026-.605a5 5 0 0 0-.06-.292 5 5 0 0 0-.084-.3 4 4 0 0 0-.126-.306 2.589 2.589 0 0 0-.413-.619 3 3 0 0 0-.23-.213 3 3 0 0 0-.233-.158c-.071-.042-.115-.076-.118-.093a.1.1 0 0 1 .005-.048c.008-.015.03-.018.104-.01"
          clip-rule="evenodd"></path>
</svg>
